<?xml version="1.0" encoding="UTF-8"?>
<svg version="1.1" viewBox="0 0 10 10" xmlns="http://www.w3.org/2000/svg">
	<g id="palette">
		<rect y="0" x="0" width="1" height="1" fill="#000000" id="black"/>
		<rect y="0" x="1" width="1" height="1" fill="#ffffff" id="white"/>
		<rect y="1" x="0" width="1" height="1" fill="#fafafa" id="grey-50"/>
		<rect y="1" x="1" width="1" height="1" fill="#f4f4f5" id="grey-100"/>
		<rect y="1" x="2" width="1" height="1" fill="#e4e4e7" id="grey-200"/>
		<rect y="1" x="3" width="1" height="1" fill="#d4d4d8" id="grey-300"/>
		<rect y="1" x="4" width="1" height="1" fill="#a1a1aa" id="grey-400"/>
		<rect y="1" x="5" width="1" height="1" fill="#71717a" id="grey-500"/>
		<rect y="1" x="6" width="1" height="1" fill="#52525b" id="grey-600"/>
		<rect y="1" x="7" width="1" height="1" fill="#3f3f46" id="grey-700"/>
		<rect y="1" x="8" width="1" height="1" fill="#27272a" id="grey-800"/>
		<rect y="1" x="9" width="1" height="1" fill="#18181b" id="grey-900"/>
		<rect y="2" x="0" width="1" height="1" fill="#fcf3f4" id="red-50"/>
		<rect y="2" x="1" width="1" height="1" fill="#faeaec" id="red-100"/>
		<rect y="2" x="2" width="1" height="1" fill="#f3ced2" id="red-200"/>
		<rect y="2" x="3" width="1" height="1" fill="#ecb1b8" id="red-300"/>
		<rect y="2" x="4" width="1" height="1" fill="#e38c96" id="red-400"/>
		<rect y="2" x="5" width="1" height="1" fill="#d55161" id="red-500"/>
		<rect y="2" x="6" width="1" height="1" fill="#cf3a4b" id="red-600"/>
		<rect y="2" x="7" width="1" height="1" fill="#bd2e3e" id="red-700"/>
		<rect y="2" x="8" width="1" height="1" fill="#942431" id="red-800"/>
		<rect y="2" x="9" width="1" height="1" fill="#6b1a23" id="red-900"/>
		<rect y="3" x="0" width="1" height="1" fill="#fff8f5" id="orange-50"/>
		<rect y="3" x="1" width="1" height="1" fill="#feefe6" id="orange-100"/>
		<rect y="3" x="2" width="1" height="1" fill="#fddece" id="orange-200"/>
		<rect y="3" x="3" width="1" height="1" fill="#fccbb0" id="orange-300"/>
		<rect y="3" x="4" width="1" height="1" fill="#fbb48e" id="orange-400"/>
		<rect y="3" x="5" width="1" height="1" fill="#f99a66" id="orange-500"/>
		<rect y="3" x="6" width="1" height="1" fill="#f77d3b" id="orange-600"/>
		<rect y="3" x="7" width="1" height="1" fill="#f55c0a" id="orange-700"/>
		<rect y="3" x="8" width="1" height="1" fill="#c94c08" id="orange-800"/>
		<rect y="3" x="9" width="1" height="1" fill="#933706" id="orange-900"/>
		<rect y="4" x="0" width="1" height="1" fill="#fdfbf2" id="yellow-50"/>
		<rect y="4" x="1" width="1" height="1" fill="#fbf6e4" id="yellow-100"/>
		<rect y="4" x="2" width="1" height="1" fill="#f6eac1" id="yellow-200"/>
		<rect y="4" x="3" width="1" height="1" fill="#f1e0a2" id="yellow-300"/>
		<rect y="4" x="4" width="1" height="1" fill="#ecd379" id="yellow-400"/>
		<rect y="4" x="5" width="1" height="1" fill="#e6c653" id="yellow-500"/>
		<rect y="4" x="6" width="1" height="1" fill="#dab220" id="yellow-600"/>
		<rect y="4" x="7" width="1" height="1" fill="#bf9c1c" id="yellow-700"/>
		<rect y="4" x="8" width="1" height="1" fill="#9c7f17" id="yellow-800"/>
		<rect y="4" x="9" width="1" height="1" fill="#745e11" id="yellow-900"/>
		<rect y="5" x="0" width="1" height="1" fill="#f4fbf8" id="green-50"/>
		<rect y="5" x="1" width="1" height="1" fill="#e9f6f0" id="green-100"/>
		<rect y="5" x="2" width="1" height="1" fill="#d0ecdf" id="green-200"/>
		<rect y="5" x="3" width="1" height="1" fill="#b7e1cd" id="green-300"/>
		<rect y="5" x="4" width="1" height="1" fill="#9ed7bc" id="green-400"/>
		<rect y="5" x="5" width="1" height="1" fill="#7bc8a4" id="green-500"/>
		<rect y="5" x="6" width="1" height="1" fill="#59ba8d" id="green-600"/>
		<rect y="5" x="7" width="1" height="1" fill="#43a276" id="green-700"/>
		<rect y="5" x="8" width="1" height="1" fill="#378561" id="green-800"/>
		<rect y="5" x="9" width="1" height="1" fill="#2a6549" id="green-900"/>
		<rect y="6" x="0" width="1" height="1" fill="#ebf7fa" id="darkgreen-50"/>
		<rect y="6" x="1" width="1" height="1" fill="#dbf1f5" id="darkgreen-100"/>
		<rect y="6" x="2" width="1" height="1" fill="#afe1e9" id="darkgreen-200"/>
		<rect y="6" x="3" width="1" height="1" fill="#7acddb" id="darkgreen-300"/>
		<rect y="6" x="4" width="1" height="1" fill="#36b3c9" id="darkgreen-400"/>
		<rect y="6" x="5" width="1" height="1" fill="#2a8b9d" id="darkgreen-500"/>
		<rect y="6" x="6" width="1" height="1" fill="#267d8d" id="darkgreen-600"/>
		<rect y="6" x="7" width="1" height="1" fill="#216f7d" id="darkgreen-700"/>
		<rect y="6" x="8" width="1" height="1" fill="#1c5d69" id="darkgreen-800"/>
		<rect y="6" x="9" width="1" height="1" fill="#123d44" id="darkgreen-900"/>
		<rect y="7" x="0" width="1" height="1" fill="#f4fbfb" id="teal-50"/>
		<rect y="7" x="1" width="1" height="1" fill="#e8f7f7" id="teal-100"/>
		<rect y="7" x="2" width="1" height="1" fill="#cdedee" id="teal-200"/>
		<rect y="7" x="3" width="1" height="1" fill="#b3e4e6" id="teal-300"/>
		<rect y="7" x="4" width="1" height="1" fill="#8cd6d9" id="teal-400"/>
		<rect y="7" x="5" width="1" height="1" fill="#69c9cd" id="teal-500"/>
		<rect y="7" x="6" width="1" height="1" fill="#3eb7bb" id="teal-600"/>
		<rect y="7" x="7" width="1" height="1" fill="#38a5a8" id="teal-700"/>
		<rect y="7" x="8" width="1" height="1" fill="#2e878a" id="teal-800"/>
		<rect y="7" x="9" width="1" height="1" fill="#216163" id="teal-900"/>
		<rect y="8" x="0" width="1" height="1" fill="#f3f4f6" id="blue-50" />
		<rect y="8" x="1" width="1" height="1" fill="#e8e8ed" id="blue-100"/>
		<rect y="8" x="2" width="1" height="1" fill="#d1d1dc" id="blue-200"/>
		<rect y="8" x="3" width="1" height="1" fill="#b4b4c6" id="blue-300"/>
		<rect y="8" x="4" width="1" height="1" fill="#8e8fa9" id="blue-400"/>
		<rect y="8" x="5" width="1" height="1" fill="#54556e" id="blue-500"/>
		<rect y="8" x="6" width="1" height="1" fill="#4d4e65" id="blue-600"/>
		<rect y="8" x="7" width="1" height="1" fill="#424357" id="blue-700"/>
		<rect y="8" x="8" width="1" height="1" fill="#373848" id="blue-800"/>
		<rect y="8" x="9" width="1" height="1" fill="#262631" id="blue-900"/>
		<rect y="9" x="0" width="1" height="1" fill="#f9f6f9" id="purple-50"/>
		<rect y="9" x="1" width="1" height="1" fill="#f3ecf2" id="purple-100"/>
		<rect y="9" x="2" width="1" height="1" fill="#e4d3e2" id="purple-200"/>
		<rect y="9" x="3" width="1" height="1" fill="#d4b9d1" id="purple-300"/>
		<rect y="9" x="4" width="1" height="1" fill="#c39dbe" id="purple-400"/>
		<rect y="9" x="5" width="1" height="1" fill="#a973a2" id="purple-500"/>
		<rect y="9" x="6" width="1" height="1" fill="#a06498" id="purple-600"/>
		<rect y="9" x="7" width="1" height="1" fill="#8e5787" id="purple-700"/>
		<rect y="9" x="8" width="1" height="1" fill="#72466c" id="purple-800"/>
		<rect y="9" x="9" width="1" height="1" fill="#553451" id="purple-900"/>
	</g>
</svg>
